<?xml version="1.0" encoding="UTF-8"?> <!-- Generator: Adobe Illustrator 25.2.3, SVG Export Plug-In . SVG Version: 6.00 Build 0) --> <svg xmlns="http://www.w3.org/2000/svg" xmlns:xlink="http://www.w3.org/1999/xlink" id="Слой_1" x="0px" y="0px" viewBox="0 0 673.66 164.16" style="enable-background:new 0 0 673.66 164.16;" xml:space="preserve"> <style type="text/css"> .st0{fill:#FFFFFF;} </style> <g> <path class="st0" d="M89.59,148.24c-6.08,3.38-12.95,4.18-19.54,5.84c-12.37,3.12-25.01,3.73-37.71,3.18 c-5.19-0.22-10.19-1.43-15.1-3.14C2.2,148.9-4.03,132.53,2.69,118.15c3.06-6.56,7.03-12.46,12.11-17.62 c2.89-2.93,5.8-5.86,8.44-8.54c-0.62-3.08-3.35-3.98-4.19-6.78c3,0.79,4.37,3.83,7.15,4.2c0.16-0.04,0.34-0.04,0.49-0.11 c7.65-3.43,9.62-9.48,10.06-17.61c1.06-19.79,6.53-38.39,18.87-54.4c4.74-6.15,10.55-11.06,17.63-14.42 c12.41-5.89,27.29-2.46,36.25,8.06c9.8,11.5,13.99,25.18,16.11,39.72c0.55,3.78,0.94,7.61,1.02,11.43 c0.08,3.35,2.41,4.99,4.45,6.87c11.88,10.9,21.93,23.25,29.86,37.29c3.96,7.01,6.82,14.42,7.89,22.49 c2.5,18.85-9.49,27.44-24.18,28.63c-8.67,0.7-17.31,0.3-25.74-2.33c-2.03-0.63-4.06-1.57-6.45-1.28c-2.73,2.75-2.6,7.04-5.21,10.44 c-0.49-4.31,2.01-7.99,0.83-12.42c-4.86-1.92-9.24-6.06-15.46-4.48l0.04,0.03c-2.75-1.79-5.84-0.83-8.77-1 c-7.72-0.45-14.96-2.3-21.46-6.27c0.58-4.5,4.06-7.09,4.86-11.4c-10.76-7.78-21.01-16.36-31.01-25.01 c-5.21,4.39-9.57,10.98-12.3,18.19c-4.57,12.09,0.5,23.02,12.76,27c11.34,3.69,23.02,2.88,34.63,1.97 c6.11-0.48,12.17-1.63,18.26-2.47L89.59,148.24z M91.12,108.43c1.81,1.21,2.33,2.65,3.03,3.96c3.13,5.88,6.38,11.7,9.32,17.68 c1.61,3.28,3.83,4.78,8.06,4.2c1.69-12.34,3.3-24.71,2.78-37.18c-5.28-1.42-10.07,0.26-14.97-1.48c-0.44-4.84-2.46-9.11-6.5-12.59 c5.92-9.65,11.66-19.02,17.41-28.39c-0.32-0.3-0.64-0.59-0.96-0.89C96.21,58.8,83.4,64.39,71.88,72.63c1.43,4.2,4.73,6.79,5.4,11 c-4.11,2.92-5.11,7.56-6.27,11.8c-1.95,1.28-3.83,0.89-5.63,0.91c-6.67,0.05-13.33,0.05-20,0.01c-2.9-0.02-5.2,0.77-6.32,4.28 c10.26,7.84,20.95,14.98,32.54,20.34c2.56-1.7,2.93-4.22,4.31-6.05c1.49-1.96,2.08-4.57,4.45-6.18 C83.88,109.53,87.5,109.22,91.12,108.43z M38.63,78.64c10.54-16.86,15.13-21.87,21.45-23.61c3.22,2.83,3.9,7.71,8.42,10.56 c12.97-5.78,26.86-10.08,40.94-14.71c-2.83-9.93-6.57-18.56-13.91-25.1c-6.7-5.98-14.51-8.05-23.18-5.08 c-6.41,2.19-11.88,5.93-16.35,11.08C44.56,45,41.31,61.2,38.63,78.64z M117.17,135.75c9.69,2.16,18.69,2.22,27.38-1.61 c7-3.09,11.48-10.61,10.67-17.68c-0.49-4.29-1.47-8.51-3.27-12.51c-4.96-11.05-11.73-20.87-19.91-29.75 c-1-1.08-1.81-2.49-3.77-3.36c6.08,14.44,7.16,19.42,5.47,24.97c-2.58,1.53-5.94-0.36-8.79,1.79 C123.5,110.3,120.2,122.82,117.17,135.75z"></path> <path class="st0" d="M383.99,137.4c-4.89,1.34-34.85,1.24-38.82-0.05c-1.13-5.57-0.44-6.51,6.75-9.16c1-1.82,0.58-3.86,0.59-5.81 c0.04-13.31,0-26.63,0.03-39.94c0.03-11.37,4.68-16.01,16.14-16.12c4.33-0.04,8.65,0.05,12.98,0.14c0.63,0.01,1.25,0.38,1.78,0.55 C384.88,70.64,385.35,130.51,383.99,137.4z M362.75,128.73c4.11,0.29,8.16,0.87,12.62-0.66c-0.02-17.45,0.2-34.63-0.13-51.14 c-1.87-1.43-3.06-1.32-4.21-1.37c-8.21-0.32-9.25,0.66-9.26,8.83c-0.01,12.81-0.02,25.62,0.01,38.43 C361.8,124.61,361.42,126.48,362.75,128.73z"></path> <path class="st0" d="M597.44,102.27c0-7.32-0.06-14.64,0.02-21.96c0.1-9.11,4.82-13.89,13.81-14.14c1.5-0.04,2.99-0.02,4.49-0.01 c10.33,0.09,15.33,4.35,15.61,14.61c0.4,14.3,0.39,28.62,0.01,42.92c-0.28,10.67-5.08,14.33-15.81,14.9 c-12.98,0.7-19.22-4.7-18.22-18.35C597.81,114.27,597.44,108.26,597.44,102.27z M621.7,102.32c0-5.98,0-11.96,0-17.93 c-0.01-8.76-0.62-9.35-9.31-8.95c-0.33,0.02-0.66,0.02-1,0.03c-3.02,0.09-4.64,1.64-4.65,4.66c-0.03,14.78-0.03,29.56,0,44.34 c0,3.01,1.61,4.59,4.62,4.69c1.49,0.05,2.99,0.09,4.48,0.03c4.93-0.17,5.77-0.95,5.82-5.94 C621.75,116.27,621.69,109.29,621.7,102.32z"></path> <path class="st0" d="M285.77,66.46c10.78-0.23,21.48-0.29,32.58,0.04c0,24.11,0,47.47,0,70.85c-2.87,1.35-5.38,1.22-8.72,0.03 c0-20.25,0-40.62,0-61.09c-5.16-1.19-9.56-0.75-13.73-0.46c-1.9,1.93-1.33,4.04-1.34,5.96c-0.05,16.49-0.02,32.97-0.04,49.46 c0,2.13,0.36,4.35-1.1,6.33c-2.56,1.07-5.11,1.05-7.6,0.03C284.34,133.62,284.1,72.56,285.77,66.46z"></path> <path class="st0" d="M516.62,67.09c2.81-1.06,5.36-1.13,8.34,0.21c1.44,9.02-0.07,18.31,1.72,27.74c1.25-2.63,2.49-5.27,3.74-7.9 c2.43-5.11,4.73-10.29,7.34-15.31c2.54-4.88,6.65-6.38,12.8-4.58c-4.9,9.88-9.74,19.65-14.71,29.67 c4.95,13.28,9.93,26.63,14.94,40.06c-3.16,2.02-5.91,1.26-9.07,0.87c-4.62-9.07-6.93-19.2-11.49-28.97 c-2.89,3.4-4.63,6.76-4.66,10.87c-0.03,4.16,0.01,8.33-0.03,12.49c-0.02,1.8,0.26,3.7-1.24,5.39c-2.42,0.99-4.96,1-7.45-0.04 C515.37,133.6,515.13,72.55,516.62,67.09z"></path> <path class="st0" d="M220.27,136.87c0-9.63,0-19.08,0-28.86c-4.75-1.42-9.14-0.64-14.11-0.56c-1.21,10.14,0.19,20.11-0.83,29.85 c-2.95,1.51-5.47,1.07-8.46,0.39c0-23.58,0-46.94,0-70.22c3.85-1.4,3.85-1.4,8.23-0.07c1.48,9.46-0.22,19.29,0.98,29.23 c4.6,1.29,8.97,0.74,14.1,0.38c0-10.06,0-19.79,0-29.05c3.17-2.31,5.72-1.57,8.13-1.18c1.58,4.09,1.88,65.01,0.47,70.36 C224.85,138.73,224.85,138.73,220.27,136.87z"></path> <path class="st0" d="M240.85,66.85c10.83,0,21.49,0,32.6,0c0,23.73,0,47.08,0,70.43c-2.79,1.46-5.29,1.32-8.72-0.14 c0-20.11,0-40.46,0-60.85c-5.29-1.14-9.69-0.83-15.01-0.3c0,20.5,0,40.84,0,60.8c-3.35,1.98-5.86,1.74-8.88,0.73 C240.85,114.13,240.85,90.77,240.85,66.85z"></path> <path class="st0" d="M649.39,137.37c-3.11,1.25-5.51,1.21-7.86,0.32c-1.32-3.58-1.76-63.17-0.56-70.08 c0.76-1.07,1.92-1.26,3.09-1.26c5.32-0.02,10.66-0.25,15.96,0.06c8.67,0.52,13.34,5.52,13.57,14.13c0.1,3.82,0.09,7.65,0.01,11.48 c-0.21,9.48-4.84,14.32-14.32,15.12c-2.93,0.25-5.96-0.41-9.2,0.85C649.09,117.75,650.24,127.54,649.39,137.37z M649.87,96.43 c3.62,1.43,6.64,0.82,9.59,0.88c3.08,0.06,4.65-1.71,4.75-4.62c0.14-3.99,0.13-7.99-0.01-11.99c-0.09-2.6-1.48-4.55-4.16-4.87 c-3.25-0.38-6.58-0.88-10.21,0.65C649.6,83.06,649.58,89.65,649.87,96.43z"></path> <path class="st0" d="M475.06,66.61c10.26-0.48,19.82-0.49,29.22-0.04c1.8,2.98,1.57,5.49,0.57,8.32 c-6.64,1.68-13.56-0.35-20.6,1.34c-0.63,6.88-0.58,13.57-0.05,20.23c4.76,2.06,9.76-0.46,13.91,1.98c0.65,4.58-0.44,6.6-4.02,7.98 c-3.01,1.16-6.31,0.23-10.05,1.64c-0.33,6.5-0.24,13.21,0.04,20.22c7.03,1.81,13.94-0.2,20.53,1.31c1.53,2.72,1.09,5.22,0.06,8.55 c-9.73,0.27-19.42,0.29-29.61-0.05C475.06,114.16,475.06,90.81,475.06,66.61z"></path> <path class="st0" d="M405.02,75.98c0,7.14,0,13.73,0,20.35c4.56,2.35,9.57-0.29,13.78,1.97c0.82,4.33-0.28,6.65-3.7,8.06 c-2.99,1.23-6.28,0.47-10.12,1.5c-0.55,6.75-0.29,13.58-0.09,20.56c6.91,1.49,13.45-0.13,19.85,1.12c1.77,2.5,1.23,5.07,0.49,8.39 c-9.6,0.76-19.25,0.38-29.36,0.25c0-24.11,0-47.47,0-71.64c9.94-0.38,19.6-0.35,29.03-0.02c1.32,3.18,1.22,5.57,0.22,8.46 C418.77,76.38,412.07,74.87,405.02,75.98z"></path> <path class="st0" d="M446.37,76.65c-4.46-1.97-8.31-0.26-11.9-1.74c-1.47-2.43-1.2-4.95-0.05-8.05c10.76,0,21.6,0,32.52,0 c1.28,2.77,1.14,5.28,0.24,7.78c-3.52,1.99-7.48-0.13-11.53,2.05c0,19.9,0,40.12,0,60c-3.3,2.16-5.92,1.96-9.27,0.49 C446.37,117.08,446.37,96.85,446.37,76.65z"></path> <path class="st0" d="M578.53,136.93c-3.22,1.78-5.61,1.58-8.82,0.55c-0.75-9.99-0.24-20.23-0.34-30.45 c-0.09-10.12-0.02-20.24-0.02-30.13c-4.02-2.51-8.13-0.41-11.78-1.97c-1.53-2.44-1.25-4.96,0.06-8.48 c10.59-0.28,21.42-0.18,32.02-0.06c1.43,4.39,1.43,4.39,0.29,8.49c-3.27,1.56-7.15-0.15-11.41,1.62 C578.53,96.67,578.53,117.01,578.53,136.93z"></path> <path class="st0" d="M92.63,147.25c-0.86,0.79-1.92,0.99-3.04,0.99l0.04,0.05c0.85-0.83,1.92-0.97,3.04-1L92.63,147.25z"></path> <path class="st0" d="M93.75,95.12c-0.09,4.84-3.87,8.43-8.71,8.28c-4.32-0.14-8.11-4.12-8.12-8.52c0-4.42,3.86-8.31,8.27-8.34 C89.76,86.5,93.83,90.58,93.75,95.12z"></path> </g> </svg> 